<svg xmlns="http://www.w3.org/2000/svg" width="757" height="94" viewBox="0 0 756.62 93.60" role="img" aria-label="lovely-assertions">
  <circle cx="26.00" cy="46.80" r="20.00" fill="#ea5da9"/>
  <circle cx="82.00" cy="46.80" r="20.00" fill="#ad8dfd"/>
  <circle cx="138.00" cy="46.80" r="20.00" fill="#e9c85e"/>
  <path transform="translate(202.00 69.24)" fill="#291a24" d="M4.45 0V-48.55H14.06V0ZM37.78 0.93Q32.41 0.93 28.32 -1.2Q24.23 -3.32 21.91 -7.52Q19.59 -11.72 19.59 -17.94Q19.59 -24.23 21.94 -28.38Q24.29 -32.53 28.4 -34.59Q32.51 -36.65 37.76 -36.65Q43.09 -36.65 47.21 -34.54Q51.32 -32.43 53.66 -28.26Q56 -24.09 56 -17.83Q56 -11.46 53.61 -7.28Q51.23 -3.1 47.09 -1.08Q42.95 0.93 37.78 0.93ZM38.09 -6.32Q40.73 -6.32 42.53 -7.56Q44.32 -8.79 45.25 -11.26Q46.18 -13.73 46.18 -17.27Q46.18 -21.01 45.19 -23.63Q44.2 -26.24 42.29 -27.65Q40.39 -29.06 37.52 -29.06Q34.95 -29.06 33.12 -27.84Q31.29 -26.61 30.36 -24.16Q29.42 -21.71 29.42 -18.08Q29.42 -12.32 31.71 -9.32Q34 -6.32 38.09 -6.32ZM69.07 0 57.15 -35.66H67.97L75.49 -7.76H76.55L84.12 -35.66H94.5L82.53 0ZM114.07 0.93Q109.63 0.93 106.19 -0.29Q102.75 -1.51 100.37 -3.84Q97.98 -6.18 96.73 -9.54Q95.48 -12.91 95.48 -17.2Q95.48 -21.43 96.68 -25Q97.89 -28.56 100.19 -31.18Q102.48 -33.79 105.82 -35.22Q109.16 -36.65 113.37 -36.65Q117.47 -36.65 120.65 -35.3Q123.84 -33.96 125.96 -31.31Q128.09 -28.66 129.09 -24.83Q130.08 -21 129.76 -16.03L101.84 -15.82V-21.17L124.07 -21.38L120.7 -18.64Q121.14 -22.24 120.21 -24.55Q119.29 -26.86 117.48 -27.96Q115.68 -29.06 113.46 -29.06Q110.88 -29.06 108.93 -27.68Q106.98 -26.3 105.91 -23.7Q104.85 -21.11 104.85 -17.39Q104.85 -11.65 107.36 -8.93Q109.87 -6.21 114.04 -6.21Q115.95 -6.21 117.27 -6.73Q118.58 -7.24 119.44 -8.05Q120.3 -8.87 120.8 -9.9Q121.31 -10.93 121.59 -11.98L130.12 -10.16Q129.58 -7.66 128.38 -5.62Q127.18 -3.59 125.22 -2.12Q123.26 -0.65 120.51 0.14Q117.76 0.93 114.07 0.93ZM135.49 0V-48.55H145.1V0ZM165.89 12.29Q163.19 12.29 160.37 11.78Q157.54 11.27 155.08 10.24Q152.62 9.22 150.87 7.6L153.62 -0.83Q155.81 1.43 159.06 2.55Q162.3 3.67 165.46 3.67Q169.11 3.67 171.51 2.2Q173.9 0.73 175.16 -2.29Q176.42 -5.31 176.58 -9.85L177 -16.03H175.51Q174.89 -11.51 173.34 -8.66Q171.79 -5.82 169.45 -4.49Q167.1 -3.16 163.94 -3.16Q160.03 -3.16 157.39 -5.13Q154.75 -7.09 153.42 -11.02Q152.09 -14.95 152.09 -20.75V-35.72H161.89V-23.12Q161.89 -16.81 163.31 -14.03Q164.72 -11.24 167.69 -11.24Q169.26 -11.24 170.54 -12.1Q171.81 -12.96 172.72 -14.58Q173.62 -16.2 174.13 -18.56Q174.63 -20.92 174.67 -23.93V-35.72H184.44V-9.46Q184.44 -5.21 183.7 -1.74Q182.96 1.72 181.49 4.34Q180.01 6.95 177.79 8.74Q175.57 10.52 172.61 11.4Q169.65 12.29 165.89 12.29ZM189.58 -13.66V-22.51H209.34V-13.66ZM222.66 0.93Q219.7 0.93 217.38 -0.23Q215.06 -1.38 213.75 -3.64Q212.43 -5.9 212.43 -9.2Q212.43 -12.14 213.56 -14.13Q214.68 -16.12 216.87 -17.35Q219.06 -18.58 222.22 -19.39Q225.38 -20.19 229.45 -20.79Q231.65 -21.15 233.06 -21.47Q234.47 -21.79 235.17 -22.49Q235.86 -23.18 235.86 -24.53Q235.86 -26.46 234.49 -27.81Q233.12 -29.17 230.15 -29.17Q228.24 -29.17 226.56 -28.5Q224.88 -27.82 223.69 -26.44Q222.51 -25.06 222.02 -22.94L213.35 -25.5Q214.15 -28.34 215.66 -30.42Q217.16 -32.5 219.35 -33.91Q221.53 -35.31 224.33 -35.98Q227.13 -36.65 230.4 -36.65Q235.59 -36.65 238.91 -34.97Q242.22 -33.28 243.84 -29.78Q245.46 -26.27 245.46 -20.79V-14.68Q245.46 -12.31 245.55 -9.84Q245.65 -7.37 245.82 -4.89Q245.98 -2.42 246.23 0H237.56Q237.32 -1.76 237.09 -3.96Q236.87 -6.16 236.75 -8.47H235.55Q234.63 -5.87 232.85 -3.72Q231.07 -1.56 228.51 -0.32Q225.95 0.93 222.66 0.93ZM226.82 -6.14Q228.11 -6.14 229.44 -6.6Q230.78 -7.06 232.03 -7.93Q233.29 -8.8 234.33 -10.11Q235.38 -11.41 236.03 -13.1L235.92 -18.65L237.47 -18.35Q236.26 -17.47 234.65 -16.96Q233.04 -16.46 231.3 -16.18Q229.57 -15.89 227.87 -15.56Q226.17 -15.24 224.82 -14.7Q223.47 -14.17 222.68 -13.23Q221.88 -12.29 221.88 -10.66Q221.88 -8.56 223.26 -7.35Q224.64 -6.14 226.82 -6.14ZM266.87 0.93Q263.25 0.93 260.34 0.25Q257.43 -0.43 255.31 -1.73Q253.19 -3.03 251.9 -4.86Q250.61 -6.69 250.23 -8.96L257.72 -11.93Q258.04 -10.44 259.22 -9.12Q260.41 -7.8 262.48 -7.02Q264.56 -6.24 267.5 -6.24Q270.57 -6.24 272.27 -7.16Q273.97 -8.08 273.97 -9.81Q273.97 -11.09 273.02 -11.83Q272.06 -12.58 270.25 -13.12Q268.45 -13.66 265.83 -14.17Q263.28 -14.73 260.68 -15.44Q258.07 -16.16 255.85 -17.38Q253.63 -18.6 252.27 -20.6Q250.91 -22.6 250.91 -25.66Q250.91 -28.98 252.67 -31.42Q254.43 -33.87 257.84 -35.26Q261.25 -36.65 266.09 -36.65Q270.52 -36.65 273.85 -35.45Q277.18 -34.25 279.32 -32.03Q281.46 -29.81 282.17 -26.67L274.21 -24.09Q273.97 -25.76 272.91 -26.98Q271.85 -28.2 270.13 -28.84Q268.41 -29.47 266.1 -29.47Q263.22 -29.47 261.61 -28.52Q260 -27.57 260 -25.96Q260 -24.69 261.04 -23.89Q262.09 -23.08 264 -22.57Q265.91 -22.06 268.47 -21.5Q271.17 -20.96 273.75 -20.25Q276.33 -19.55 278.43 -18.38Q280.53 -17.21 281.76 -15.3Q283 -13.39 283 -10.39Q283 -6.83 281.09 -4.29Q279.19 -1.74 275.59 -0.41Q272 0.93 266.87 0.93ZM303.05 0.93Q299.42 0.93 296.52 0.25Q293.61 -0.43 291.49 -1.73Q289.37 -3.03 288.08 -4.86Q286.79 -6.69 286.41 -8.96L293.9 -11.93Q294.21 -10.44 295.4 -9.12Q296.59 -7.8 298.66 -7.02Q300.73 -6.24 303.67 -6.24Q306.75 -6.24 308.45 -7.16Q310.15 -8.08 310.15 -9.81Q310.15 -11.09 309.19 -11.83Q308.24 -12.58 306.43 -13.12Q304.62 -13.66 302.01 -14.17Q299.45 -14.73 296.85 -15.44Q294.25 -16.16 292.03 -17.38Q289.8 -18.6 288.45 -20.6Q287.09 -22.6 287.09 -25.66Q287.09 -28.98 288.85 -31.42Q290.6 -33.87 294.02 -35.26Q297.43 -36.65 302.27 -36.65Q306.7 -36.65 310.03 -35.45Q313.35 -34.25 315.5 -32.03Q317.64 -29.81 318.34 -26.67L310.39 -24.09Q310.15 -25.76 309.08 -26.98Q308.02 -28.2 306.3 -28.84Q304.58 -29.47 302.28 -29.47Q299.4 -29.47 297.79 -28.52Q296.17 -27.57 296.17 -25.96Q296.17 -24.69 297.22 -23.89Q298.26 -23.08 300.17 -22.57Q302.08 -22.06 304.65 -21.5Q307.35 -20.96 309.92 -20.25Q312.5 -19.55 314.6 -18.38Q316.7 -17.21 317.94 -15.3Q319.17 -13.39 319.17 -10.39Q319.17 -6.83 317.27 -4.29Q315.36 -1.74 311.77 -0.41Q308.17 0.93 303.05 0.93ZM341.25 0.93Q336.82 0.93 333.38 -0.29Q329.94 -1.51 327.55 -3.84Q325.17 -6.18 323.92 -9.54Q322.67 -12.91 322.67 -17.2Q322.67 -21.43 323.87 -25Q325.08 -28.56 327.37 -31.18Q329.67 -33.79 333.01 -35.22Q336.34 -36.65 340.56 -36.65Q344.65 -36.65 347.84 -35.3Q351.02 -33.96 353.15 -31.31Q355.28 -28.66 356.27 -24.83Q357.27 -21 356.94 -16.03L329.03 -15.82V-21.17L351.26 -21.38L347.89 -18.64Q348.33 -22.24 347.4 -24.55Q346.47 -26.86 344.67 -27.96Q342.87 -29.06 340.65 -29.06Q338.07 -29.06 336.12 -27.68Q334.17 -26.3 333.1 -23.7Q332.04 -21.11 332.04 -17.39Q332.04 -11.65 334.55 -8.93Q337.06 -6.21 341.23 -6.21Q343.14 -6.21 344.45 -6.73Q345.77 -7.24 346.63 -8.05Q347.49 -8.87 347.99 -9.9Q348.49 -10.93 348.78 -11.98L357.31 -10.16Q356.77 -7.66 355.57 -5.62Q354.37 -3.59 352.41 -2.12Q350.45 -0.65 347.7 0.14Q344.95 0.93 341.25 0.93ZM362.68 0V-17.31L362.67 -35.72H370.78L370.78 -23.45H372.09Q372.61 -28.02 373.92 -30.9Q375.23 -33.78 377.6 -35.16Q379.97 -36.55 383.49 -36.55Q384.11 -36.55 384.85 -36.48Q385.58 -36.41 386.54 -36.19L386.15 -25.82Q385.07 -26.29 383.86 -26.48Q382.65 -26.67 381.69 -26.67Q379.05 -26.67 377.13 -25.46Q375.22 -24.26 374.07 -21.96Q372.92 -19.65 372.49 -16.33V0ZM405.18 0.83Q399.17 0.83 396.35 -2.35Q393.53 -5.53 393.53 -12.43V-28H388.4L388.56 -35.64H392.01Q394.17 -35.67 395.21 -36.33Q396.25 -36.99 396.51 -38.71L397.34 -43.67H402.9V-35.72H411.92V-27.72H402.9V-12.84Q402.9 -10.41 404.06 -9.3Q405.22 -8.18 407.58 -8.18Q408.85 -8.18 410.06 -8.47Q411.26 -8.76 412.17 -9.37V-0.25Q410.06 0.44 408.3 0.64Q406.54 0.83 405.18 0.83ZM417.49 0V-35.72H427.26V0ZM422.4 -40.95Q419.52 -40.95 418 -42.16Q416.48 -43.37 416.48 -45.68Q416.48 -48.03 418 -49.25Q419.52 -50.47 422.4 -50.47Q425.33 -50.47 426.85 -49.25Q428.38 -48.03 428.38 -45.69Q428.38 -43.39 426.85 -42.17Q425.33 -40.95 422.4 -40.95ZM451.02 0.93Q445.64 0.93 441.55 -1.2Q437.46 -3.32 435.15 -7.52Q432.83 -11.72 432.83 -17.94Q432.83 -24.23 435.18 -28.38Q437.53 -32.53 441.64 -34.59Q445.75 -36.65 450.99 -36.65Q456.33 -36.65 460.44 -34.54Q464.56 -32.43 466.9 -28.26Q469.23 -24.09 469.23 -17.83Q469.23 -11.46 466.85 -7.28Q464.46 -3.1 460.32 -1.08Q456.19 0.93 451.02 0.93ZM451.33 -6.32Q453.96 -6.32 455.76 -7.56Q457.56 -8.79 458.49 -11.26Q459.41 -13.73 459.41 -17.27Q459.41 -21.01 458.42 -23.63Q457.44 -26.24 455.53 -27.65Q453.63 -29.06 450.75 -29.06Q448.18 -29.06 446.35 -27.84Q444.52 -26.61 443.59 -24.16Q442.66 -21.71 442.66 -18.08Q442.66 -12.32 444.95 -9.32Q447.23 -6.32 451.33 -6.32ZM474.81 0V-21.57L474.81 -35.72H482.81L482.75 -24.84H484.06Q484.93 -28.82 486.55 -31.44Q488.16 -34.07 490.66 -35.36Q493.16 -36.65 496.56 -36.65Q502.74 -36.65 505.95 -32.32Q509.17 -27.98 509.17 -18.7V0H499.34V-17.64Q499.34 -23.28 497.7 -25.88Q496.06 -28.47 492.83 -28.47Q490.11 -28.47 488.29 -26.79Q486.47 -25.11 485.54 -22.3Q484.61 -19.5 484.57 -16.05V0ZM530.44 0.93Q526.82 0.93 523.91 0.25Q521 -0.43 518.88 -1.73Q516.76 -3.03 515.47 -4.86Q514.18 -6.69 513.8 -8.96L521.29 -11.93Q521.6 -10.44 522.79 -9.12Q523.98 -7.8 526.05 -7.02Q528.13 -6.24 531.06 -6.24Q534.14 -6.24 535.84 -7.16Q537.54 -8.08 537.54 -9.81Q537.54 -11.09 536.58 -11.83Q535.63 -12.58 533.82 -13.12Q532.01 -13.66 529.4 -14.17Q526.85 -14.73 524.24 -15.44Q521.64 -16.16 519.42 -17.38Q517.2 -18.6 515.84 -20.6Q514.48 -22.6 514.48 -25.66Q514.48 -28.98 516.24 -31.42Q518 -33.87 521.41 -35.26Q524.82 -36.65 529.66 -36.65Q534.09 -36.65 537.42 -35.45Q540.75 -34.25 542.89 -32.03Q545.03 -29.81 545.74 -26.67L537.78 -24.09Q537.54 -25.76 536.48 -26.98Q535.41 -28.2 533.69 -28.84Q531.98 -29.47 529.67 -29.47Q526.79 -29.47 525.18 -28.52Q523.57 -27.57 523.57 -25.96Q523.57 -24.69 524.61 -23.89Q525.66 -23.08 527.56 -22.57Q529.47 -22.06 532.04 -21.5Q534.74 -20.96 537.32 -20.25Q539.9 -19.55 541.99 -18.38Q544.09 -17.21 545.33 -15.3Q546.56 -13.39 546.56 -10.39Q546.56 -6.83 544.66 -4.29Q542.76 -1.74 539.16 -0.41Q535.56 0.93 530.44 0.93Z"/>
</svg>
